<svg xmlns="http://www.w3.org/2000/svg" width="13" height="13" viewBox="0 0 13 13" fill="none">
    <path d="M2.2574 0.843674C1.86688 0.45315 1.23371 0.45315 0.843186 0.843674C0.452662 1.2342 0.452662 1.86736 0.843186 2.25789L2.2574 0.843674ZM11.4498 12.4503C12.0021 12.4503 12.4498 12.0026 12.4498 11.4503L12.4498 2.45028C12.4498 1.89799 12.0021 1.45028 11.4498 1.45028C10.8975 1.45028 10.4498 1.89799 10.4498 2.45028L10.4498 10.4503L2.44979 10.4503C1.8975 10.4503 1.44979 10.898 1.44979 11.4503C1.44979 12.0026 1.8975 12.4503 2.44979 12.4503L11.4498 12.4503ZM0.843186 2.25789L10.7427 12.1574L12.1569 10.7432L2.2574 0.843674L0.843186 2.25789Z" fill="#F8F8F8"/>
</svg>